#N canvas 481 58 1311 784 10;
#X obj 1 -6 cnv 15 1900 768 empty empty empty 20 12 0 14 -1 -66577
0;
#X obj 3 -4 cnv 15 1896 764 empty empty A_Lier 20 20 0 21 -182954 -66577
0;
#X obj 44 574 alpha;
#X floatatom 92 679 5 0 0 0 - - -;
#X floatatom 143 682 5 0 0 0 - - -;
#X floatatom 93 614 5 0 0 0 - - -;
#X obj 44 595 color;
#X obj 104 518 vsl 8 50 0 1 0 0 empty empty empty 0 -8 0 8 -258699
-1 -1 4900 1;
#X obj 112 518 vsl 8 50 0 1 0 0 empty empty empty 0 -8 0 8 -24198 -1
-1 4900 1;
#X obj 120 518 vsl 8 50 0 1 0 0 empty empty empty 0 -8 0 8 -355 -1
-1 4900 1;
#X obj 128 518 vsl 8 50 0 1 0 0 empty empty empty 0 -8 0 8 -195568
-1 -1 4900 1;
#N canvas 0 50 452 302 color 0;
#X obj 44 212 pack f f f f;
#X msg 44 236 \$1 \$2 \$3 \$4;
#X obj 26 145 bng 15 250 50 0 empty empty empty 0 -6 0 8 -262144 -1
-1;
#X obj 41 144 t b f;
#X obj 41 35 vsl 8 50 0 1 0 0 empty empty empty 0 -8 0 8 -258699 -1
-1 4900 1;
#X obj 49 35 vsl 8 50 0 1 0 0 empty empty empty 0 -8 0 8 -24198 -1
-1 4900 1;
#X obj 57 35 vsl 8 50 0 1 0 0 empty empty empty 0 -8 0 8 -355 -1 -1
4900 1;
#X obj 65 35 vsl 8 50 0 1 0 0 empty empty empty 0 -8 0 8 -195568 -1
-1 4900 1;
#X obj 63 167 t b f;
#X obj 86 189 t b f;
#X floatatom 77 86 5 0 0 0 - - -;
#X floatatom 67 101 5 0 0 0 - - -;
#X floatatom 53 115 5 0 0 0 - - -;
#X floatatom 35 129 5 0 0 0 - - -;
#X obj 17 7 inlet;
#X obj 52 7 inlet;
#X obj 87 7 inlet;
#X obj 122 8 inlet;
#X obj 44 261 outlet;
#X connect 0 0 1 0;
#X connect 1 0 18 0;
#X connect 2 0 0 0;
#X connect 3 0 0 0;
#X connect 3 1 0 1;
#X connect 4 0 0 0;
#X connect 4 0 13 0;
#X connect 5 0 3 0;
#X connect 5 0 12 0;
#X connect 6 0 8 0;
#X connect 6 0 11 0;
#X connect 7 0 9 0;
#X connect 7 0 10 0;
#X connect 8 0 0 0;
#X connect 8 1 0 2;
#X connect 9 0 0 0;
#X connect 9 1 0 3;
#X connect 14 0 4 0;
#X connect 15 0 5 0;
#X connect 16 0 6 0;
#X connect 17 0 7 0;
#X restore 95 578 pd color;
#X obj 44 638 pix_texture;
#X obj 180 576 loadbang;
#X obj 145 480 loadbang;
#X msg 145 499 1;
#X obj 44 701 rectangle 5.334 4;
#X obj 44 122 tgl 19 0 empty empty Gem 0 -6 0 8 -258699 -1 -1 0 1;
#X obj 323 538 cnv 15 390 200 empty empty Affichage 20 12 0 14 -195568
-66577 0;
#N canvas 997 445 706 556 Gestion_Affichage 1;
#N canvas 894 211 558 738 GemWin_Benj 0;
#X msg 75 111 create \, 1;
#X msg 61 54 stereo 2;
#X msg 53 34 border 0;
#X msg -35 95 dimen 800 600;
#X msg -35 112 offset 0 0;
#X msg -35 130 dimen 400 300;
#X msg -35 148 fullscreen 1;
#X msg -35 77 offset 1024 0;
#X msg -35 166 fullscreen 0;
#X msg -35 184 lighting 1;
#X msg -35 201 lighting 0;
#X msg -36 215 dimen 200 150;
#X msg -35 235 cursor 0;
#X msg -35 253 cursor 1;
#X msg 62 77 stereo 0;
#X msg 74 132 destroy \, 0;
#X msg 55 151 dimen 1024 768;
#X msg -35 272 dimen 1024 768;
#X obj 126 11 inlet;
#X obj 150 77 key;
#X obj 150 117 bng 15 250 50 0 empty empty empty 0 -6 0 8 -262144 -1
-1;
#X msg -31 34 border 1;
#X obj 150 97 select 27;
#X obj 131 450 t a;
#X obj 152 482 route dimen;
#X obj 152 504 s dimengemwin;
#X obj 131 536 gemwin 25;
#X connect 0 0 23 0;
#X connect 1 0 23 0;
#X connect 2 0 23 0;
#X connect 3 0 23 0;
#X connect 4 0 23 0;
#X connect 5 0 23 0;
#X connect 6 0 23 0;
#X connect 7 0 23 0;
#X connect 8 0 23 0;
#X connect 9 0 23 0;
#X connect 10 0 23 0;
#X connect 11 0 23 0;
#X connect 12 0 23 0;
#X connect 13 0 23 0;
#X connect 14 0 23 0;
#X connect 15 0 23 0;
#X connect 16 0 23 0;
#X connect 17 0 23 0;
#X connect 18 0 23 0;
#X connect 19 0 22 0;
#X connect 20 0 15 0;
#X connect 21 0 23 0;
#X connect 22 0 20 0;
#X connect 23 0 24 0;
#X connect 23 0 26 0;
#X connect 24 0 25 0;
#X restore -39 235 pd GemWin_Benj;
#X msg 133 97 create \, 1;
#X msg -39 10 dimen 400 300;
#X msg -39 -23 dimen 1024 768;
#X msg -39 76 offset 1024 0;
#X msg -39 116 cursor 0;
#X msg -39 156 view 4 0 0 0 0 0 0 1 0;
#X msg 134 122 destroy \, 0;
#X msg -39 43 offset 1280 0;
#X msg -39 93 offset 0 0;
#X obj 124 158 vsl 8 50 0 1 0 0 empty empty empty 0 -8 0 8 -258699
-1 -1 4900 1;
#X obj 132 158 vsl 8 50 0 1 0 0 empty empty empty 0 -8 0 8 -24198 -1
-1 0 1;
#X obj 140 158 vsl 8 50 0 1 0 0 empty empty empty 0 -8 0 8 -355 -1
-1 0 1;
#N canvas 0 50 466 316 colgem 0;
#X obj 26 145 bng 15 250 50 0 empty empty empty 0 -6 0 8 -262144 -1
-1;
#X obj 41 144 t b f;
#X obj 41 35 vsl 8 50 0 1 0 0 empty empty empty 0 -8 0 8 -258699 -1
-1 4900 1;
#X obj 49 35 vsl 8 50 0 1 0 0 empty empty empty 0 -8 0 8 -24198 -1
-1 0 1;
#X obj 57 35 vsl 8 50 0 1 0 0 empty empty empty 0 -8 0 8 -355 -1 -1
0 1;
#X obj 63 167 t b f;
#X floatatom 67 101 5 0 0 0 - - -;
#X floatatom 53 115 5 0 0 0 - - -;
#X floatatom 35 129 5 0 0 0 - - -;
#X obj 17 7 inlet;
#X obj 52 7 inlet;
#X obj 87 7 inlet;
#X obj 44 261 outlet;
#X obj 44 212 pack f f f;
#X msg 44 236 color \$1 \$2 \$3;
#X connect 0 0 13 0;
#X connect 1 0 13 0;
#X connect 1 1 13 1;
#X connect 2 0 8 0;
#X connect 2 0 13 0;
#X connect 3 0 1 0;
#X connect 3 0 7 0;
#X connect 4 0 5 0;
#X connect 4 0 6 0;
#X connect 5 0 13 0;
#X connect 5 1 13 2;
#X connect 9 0 2 0;
#X connect 10 0 3 0;
#X connect 11 0 4 0;
#X connect 13 0 14 0;
#X connect 14 0 12 0;
#X restore 115 218 pd colgem;
#X msg -39 173 view 0 4 0 0 0 0 0 1 0;
#X msg -39 133 cursor 1;
#X msg -39 59 offset 1680 0;
#X obj 115 -14 inlet;
#X obj 115 64 t b b b b;
#X obj 115 23 select 1;
#X msg -40 -6 dimen 1280 1024;
#X obj 231 99 t b b;
#X msg -40 190 view 0 0 4 0 0 0 0 1 0;
#X text 8 208 default;
#X msg -40 26 dimen 800 600;
#X msg 111 250 border 1;
#X msg 6 267 offset 0 0;
#X msg 4 284 dimen 800 600;
#X msg 5 307 border 1;
#X obj 196 190 t a;
#X obj 196 143 loadbang;
#X obj 382 35 gemkeyboard;
#X floatatom 382 73 5 0 0 1 keyCode - -;
#X obj 382 94 sel 9;
#X obj 545 34 key;
#X floatatom 545 62 5 0 0 1 keyCode - -;
#X obj 545 83 sel 27;
#X msg 274 350 dimen 1280 480 \, border 1 \, offset 0 0 \, cursor 0
\, create \, 1;
#X msg 196 165 0;
#X msg 265 397 dimen 2560 960 \, border 1 \, offset 0 0 \, cursor 0
\, create \, 1;
#X msg 114 495 dimen 2048 768 \, border 0 \, offset 1920 0 \, cursor
0 \, create \, 1;
#X msg 211 457 dimen 2560 1024 \, border 0 \, offset 1920 0 \, cursor
0 \, topmost 1 \, create \, 1;
#X msg 268 303 dimen 800 600 \, border 1 \, cursor 1 \, create \, 1
;
#X obj 264 -19 inlet;
#X msg 264 239 dimen 1280 400 \, border 1 \, offset 0 0 \, cursor 1
\, create \, 1;
#X msg 274 195 dimen 2560 800 \, border 0 \, cursor 0 \, create \,
1;
#X connect 1 0 0 0;
#X connect 2 0 0 0;
#X connect 3 0 0 0;
#X connect 4 0 0 0;
#X connect 5 0 0 0;
#X connect 6 0 0 0;
#X connect 7 0 0 0;
#X connect 8 0 0 0;
#X connect 9 0 0 0;
#X connect 10 0 13 0;
#X connect 11 0 13 1;
#X connect 12 0 13 2;
#X connect 13 0 0 0;
#X connect 14 0 0 0;
#X connect 15 0 0 0;
#X connect 16 0 0 0;
#X connect 17 0 19 0;
#X connect 18 3 45 0;
#X connect 19 0 18 0;
#X connect 19 1 21 0;
#X connect 20 0 0 0;
#X connect 21 0 7 0;
#X connect 21 1 7 0;
#X connect 22 0 0 0;
#X connect 24 0 0 0;
#X connect 25 0 0 0;
#X connect 26 0 0 0;
#X connect 27 0 0 0;
#X connect 28 0 0 0;
#X connect 29 0 10 0;
#X connect 29 0 11 0;
#X connect 29 0 12 0;
#X connect 30 0 38 0;
#X connect 31 0 32 0;
#X connect 32 0 33 0;
#X connect 33 0 7 0;
#X connect 34 0 35 0;
#X connect 35 0 36 0;
#X connect 36 0 7 0;
#X connect 37 0 0 0;
#X connect 38 0 29 0;
#X connect 39 0 0 0;
#X connect 40 0 0 0;
#X connect 41 0 0 0;
#X connect 42 0 0 0;
#X connect 43 0 44 0;
#X connect 44 0 0 0;
#X connect 45 0 0 0;
#X restore 435 660 pd Gestion_Affichage;
#X obj 435 625 tgl 29 0 empty empty Affichage-ON_OFF 0 -6 0 8 -24198
-258699 -1 0 1;
#N canvas 3 202 1009 711 playlist_player 0;
#X msg 568 34 seek \$1;
#X floatatom 630 36 5 0 0 0 - - -;
#X msg 529 63 sort \$1;
#X obj 590 64 tgl 15 0 empty empty empty 0 -6 0 8 -262144 -1 -1 0 1
;
#X obj 424 70 loadbang;
#X msg 574 120 scroll 200;
#X msg 275 463 bang;
#X obj 238 625 msgfile;
#N canvas 76 237 646 300 navigation 0;
#X obj 54 272 outlet;
#X msg 91 140 rewind;
#X text 140 139 go to beginning;
#X msg 92 163 end;
#X text 139 163 go the the end;
#X msg 92 214 skip -1;
#X msg 92 238 where;
#X text 145 237 where are we now ?;
#X text 146 214 go to the <n>th line from here;
#X text 142 188 go to line number <n>;
#X text 44 38 navigating through the lines of a [msgfile];
#X text 42 62 these messages will not output any data;
#X text 41 96 'where' will output the position of the "cursor" at the
2nd outlet of [msgfile];
#X msg 92 189 goto 8;
#X connect 1 0 0 0;
#X connect 3 0 0 0;
#X connect 5 0 0 0;
#X connect 6 0 0 0;
#X connect 13 0 0 0;
#X restore 275 508 pd navigation;
#N canvas 707 298 458 426 data 0;
#X obj 54 332 outlet;
#X msg 105 143 bang;
#X msg 103 231 next;
#X msg 102 189 prev;
#X msg 103 210 this;
#X text 154 140 output one line as a list and move to the next;
#X text 151 189 output the previous line;
#X text 153 229 output the next line;
#X text 151 209 output the current line;
#X msg 104 264 flush;
#X text 153 263 output all lines;
#X text 39 37 get the contents of the [msgfile] line-by-line;
#X text 37 63 'prev' \, 'this' \, 'next' and 'flush' will not alter
the current "cursor" position.;
#X connect 1 0 0 0;
#X connect 2 0 0 0;
#X connect 3 0 0 0;
#X connect 4 0 0 0;
#X connect 9 0 0 0;
#X restore 275 488 pd data retrieval;
#N canvas 489 234 669 573 editing 0;
#X obj 54 512 outlet;
#X msg 137 101 clear;
#X msg 140 481 set 2 4 6 8;
#X text 246 480 clear and then add one message;
#X msg 136 258 add cis boom bah;
#X msg 136 277 add2 bang;
#X text 190 102 empty the object;
#X msg 137 161 delete 2;
#X text 272 303 insert a message before the current line;
#X text 238 255 add a message at the end of the object;
#X msg 137 359 append after the break of dawn;
#X text 331 356 add a message at the current position;
#X msg 138 437 replace the new day;
#X text 330 437 replace the current line;
#X msg 136 306 insert before sunrise;
#X msg 136 325 insert2 inserted;
#X msg 137 378 append2 appendix;
#X msg 137 141 delete;
#X text 191 142 delete the current line;
#X text 194 161 delete the specified line;
#X msg 137 180 delete 4 7;
#X text 205 181 delete the specified region;
#X msg 137 200 delete 7 4;
#X text 208 200 delete all but the specified region;
#X text 56 39 editing (adding \, modifying \, deleting) the content
if the [msgfile];
#X text 237 275 add to the last line (INCOMPATIBLE with [textfile])
;
#X text 275 325 add to the previous line (INCOMPATIBLE with [textfile])
;
#X text 330 379 add to the current line (INCOMPATIBLE with [textfile])
;
#X connect 1 0 0 0;
#X connect 2 0 0 0;
#X connect 4 0 0 0;
#X connect 5 0 0 0;
#X connect 7 0 0 0;
#X connect 10 0 0 0;
#X connect 12 0 0 0;
#X connect 14 0 0 0;
#X connect 15 0 0 0;
#X connect 16 0 0 0;
#X connect 17 0 0 0;
#X connect 20 0 0 0;
#X connect 22 0 0 0;
#X restore 275 528 pd editing;
#N canvas 0 50 676 304 searching 0;
#X obj 54 272 outlet;
#X msg 70 180 find test 6;
#X msg 70 239 find test * 7 *;
#X text 73 61 searching (and finding) lines within the [msgfile];
#X text 177 241 you can use '*' as a wildchard for a single atom. '*'
is the only wildcard supported;
#X text 174 178 find a matching list \, starting at the current position
;
#X msg 72 208 find the new day;
#X text 76 130 if the search fails \, a 'bang' is emitted at the 2nd
outlet;
#X text 77 99 if the searched list is found \, then the linenumber
and the list is output (via the 2nd and 1st outlet).;
#X connect 1 0 0 0;
#X connect 2 0 0 0;
#X connect 6 0 0 0;
#X restore 275 548 pd searching;
#N canvas 575 306 853 402 file-i/o 0;
#X obj 54 312 outlet;
#X text 265 75 read a file;
#X text 299 96 write one;
#X text 305 164 write a file \, terminating lines only with carriage
return (omitting semicolons.) You can read files this way too \, in
which case carriage returns are mapped to semicolons.;
#X msg 87 76 read msgfile.txt;
#X msg 87 168 write /tmp/msgfile2.txt cr;
#X msg 87 191 read msgfile2.txt cr;
#X msg 87 97 write /tmp/msgfile.txt;
#X text 51 26 reading from and writing the contents of [msgfile] to
files;
#X msg 111 248 write /tmp/msgfile3.txt $$;
#X text 331 238 on writing replace every occurence of $$ with a single
$. This way you can write pd-patches which can handle arguments.;
#X msg 146 291 add #X obj f $\\\$1;
#X msg 92 130 read2 msgfile.txt;
#X text 264 131 read file and append it to the current buffer;
#X connect 4 0 0 0;
#X connect 5 0 0 0;
#X connect 6 0 0 0;
#X connect 7 0 0 0;
#X connect 9 0 0 0;
#X connect 11 0 0 0;
#X connect 12 0 0 0;
#X restore 275 568 pd file-i/o;
#N canvas 56 448 450 397 misc 0;
#X obj 84 282 outlet;
#X msg 84 112 print;
#X text 40 72 miscellaneous functionality of [msgfile];
#X text 126 114 debugging printout of the contents to the console;
#X connect 1 0 0 0;
#X restore 275 588 pd misc;
#X text 206 448 clear;
#X obj 199 336 bng 29 250 50 0 empty empty empty 17 7 0 10 -258113
-4034 -1;
#X msg 215 467 clear;
#X msg 349 591 delete;
#X msg 264 123 location /media/Docs/Vid_gnirut-test/bacteria;
#X obj 199 371 openpanel;
#X msg 199 412 read \$1 cr;
#X msg 424 95 location /media/Docs/Vid_gnirut-test/patch/playlist;
#X obj 202 214 inlet;
#X obj 289 218 inlet;
#X obj 673 249 inlet;
#X obj 238 687 outlet;
#X obj 277 661 print playlistdone;
#X msg 428 309 next;
#X msg 427 267 prev;
#X obj 515 213 loadbang;
#X msg 515 246 read VIDEOS.txt cr;
#X msg 550 390 goto \$1;
#X floatatom 663 370 5 0 0 0 - - -;
#X msg 424 478 this;
#X obj 288 337 bng 15 250 50 0 empty empty empty 17 7 0 10 -262144
-1 -1;
#X obj 500 444 t b a;
#X connect 1 0 0 0;
#X connect 3 0 2 0;
#X connect 4 0 21 0;
#X connect 6 0 7 0;
#X connect 7 0 25 0;
#X connect 7 1 26 0;
#X connect 8 0 7 0;
#X connect 9 0 7 0;
#X connect 10 0 7 0;
#X connect 11 0 7 0;
#X connect 12 0 7 0;
#X connect 13 0 7 0;
#X connect 15 0 19 0;
#X connect 16 0 7 0;
#X connect 17 0 7 0;
#X connect 19 0 20 0;
#X connect 20 0 7 0;
#X connect 22 0 15 0;
#X connect 23 0 34 0;
#X connect 24 0 31 0;
#X connect 27 0 7 0;
#X connect 28 0 7 0;
#X connect 29 0 30 0;
#X connect 30 0 7 0;
#X connect 31 0 35 0;
#X connect 32 0 31 0;
#X connect 33 0 7 0;
#X connect 34 0 6 0;
#X connect 35 0 33 0;
#X connect 35 1 7 0;
#X restore 147 154 pd playlist_player;
#X obj 147 131 bng 15 250 50 0 empty empty Load 17 7 0 10 -258113 -4034
-1;
#X obj 196 131 bng 15 250 50 0 empty empty empty 17 7 0 10 -262144
-1 -1;
#X symbolatom 147 178 32 0 0 0 - - -;
#X obj 252 57 bng 29 250 50 0 empty empty empty 17 7 0 10 -258113 -4034
-1;
#X obj 44 154 gemhead 51;
#X obj 44 265 pix_film;
#X obj 66 321 unpack 0 0 0;
#X floatatom 66 343 5 0 0 3 length - -;
#X floatatom 113 343 5 0 0 3 width - -;
#X floatatom 155 343 5 0 0 3 height - -;
#X floatatom 107 248 5 0 0 0 - - -;
#X obj 97 291 bng 15 250 50 0 empty empty empty 17 7 0 10 -262144 -1
-1;
#X floatatom 252 113 5 0 0 0 - - -;
#X obj 572 601 loadbang;
#X obj 44 383 pix_add;
#X text 875 282 INCRUSTATIONS;
#X text 147 46 VIDEOS;
#X obj 440 -35 loadbang;
#X obj 572 623 bng 32 250 50 0 empty empty Petit_Affichage 40 7 0 10
-4034 -1 -1;
#X obj 440 16 delay 500;
#X obj 252 133 f;
#X obj 514 -40 bng 45 250 50 0 empty empty All 17 -10 0 10 -258113
-4034 -1;
#X obj 355 78 ggee/shell;
#X msg 355 58 od -An -N2 -i /dev/random;
#X obj 440 -12 t b b b;
#X floatatom 355 99 5 0 0 0 - - -;
#X obj 355 38 delay 100;
#X msg 108 223 open /media/b01/CHACHA/A_LIER/\$1;
#X msg 23 224 auto \$1;
#X obj 23 206 tgl 15 0 empty empty empty 0 -6 0 8 -262144 -1 -1 1 1
;
#X obj 144 641 * 800;
#X obj 143 661 / 1280;
#X obj 252 91 rtc/xrandom 17;
#X floatatom 79 413 5 0 0 0 - - -;
#X floatatom 114 414 5 0 0 0 - - -;
#X floatatom 149 414 5 0 0 0 - - -;
#X obj 769 598 alpha;
#X floatatom 817 703 5 0 0 0 - - -;
#X floatatom 868 706 5 0 0 0 - - -;
#X floatatom 818 638 5 0 0 0 - - -;
#X obj 769 619 color;
#X obj 829 542 vsl 8 50 0 1 0 0 empty empty empty 0 -8 0 8 -258699
-1 -1 4900 1;
#X obj 837 542 vsl 8 50 0 1 0 0 empty empty empty 0 -8 0 8 -24198 -1
-1 4900 1;
#X obj 845 542 vsl 8 50 0 1 0 0 empty empty empty 0 -8 0 8 -355 -1
-1 4900 1;
#X obj 853 542 vsl 8 50 0 1 0 0 empty empty empty 0 -8 0 8 -195568
-1 -1 4900 1;
#N canvas 0 50 452 302 color 0;
#X obj 44 212 pack f f f f;
#X msg 44 236 \$1 \$2 \$3 \$4;
#X obj 26 145 bng 15 250 50 0 empty empty empty 0 -6 0 8 -262144 -1
-1;
#X obj 41 144 t b f;
#X obj 41 35 vsl 8 50 0 1 0 0 empty empty empty 0 -8 0 8 -258699 -1
-1 4900 1;
#X obj 49 35 vsl 8 50 0 1 0 0 empty empty empty 0 -8 0 8 -24198 -1
-1 4900 1;
#X obj 57 35 vsl 8 50 0 1 0 0 empty empty empty 0 -8 0 8 -355 -1 -1
4900 1;
#X obj 65 35 vsl 8 50 0 1 0 0 empty empty empty 0 -8 0 8 -195568 -1
-1 4900 1;
#X obj 63 167 t b f;
#X obj 86 189 t b f;
#X floatatom 77 86 5 0 0 0 - - -;
#X floatatom 67 101 5 0 0 0 - - -;
#X floatatom 53 115 5 0 0 0 - - -;
#X floatatom 35 129 5 0 0 0 - - -;
#X obj 17 7 inlet;
#X obj 52 7 inlet;
#X obj 87 7 inlet;
#X obj 122 8 inlet;
#X obj 44 261 outlet;
#X connect 0 0 1 0;
#X connect 1 0 18 0;
#X connect 2 0 0 0;
#X connect 3 0 0 0;
#X connect 3 1 0 1;
#X connect 4 0 0 0;
#X connect 4 0 13 0;
#X connect 5 0 3 0;
#X connect 5 0 12 0;
#X connect 6 0 8 0;
#X connect 6 0 11 0;
#X connect 7 0 9 0;
#X connect 7 0 10 0;
#X connect 8 0 0 0;
#X connect 8 1 0 2;
#X connect 9 0 0 0;
#X connect 9 1 0 3;
#X connect 14 0 4 0;
#X connect 15 0 5 0;
#X connect 16 0 6 0;
#X connect 17 0 7 0;
#X restore 820 602 pd color;
#X obj 769 662 pix_texture;
#X obj 905 600 loadbang;
#X obj 870 504 loadbang;
#X msg 870 523 1;
#X obj 769 725 rectangle 5.334 4;
#X obj 769 146 tgl 19 0 empty empty Gem 0 -6 0 8 -258699 -1 -1 0 1
;
#N canvas 3 202 1009 711 playlist_player 0;
#X msg 568 34 seek \$1;
#X floatatom 630 36 5 0 0 0 - - -;
#X msg 529 63 sort \$1;
#X obj 590 64 tgl 15 0 empty empty empty 0 -6 0 8 -262144 -1 -1 0 1
;
#X obj 424 70 loadbang;
#X msg 574 120 scroll 200;
#X msg 275 463 bang;
#X obj 238 625 msgfile;
#N canvas 76 237 646 300 navigation 0;
#X obj 54 272 outlet;
#X msg 91 140 rewind;
#X text 140 139 go to beginning;
#X msg 92 163 end;
#X text 139 163 go the the end;
#X msg 92 214 skip -1;
#X msg 92 238 where;
#X text 145 237 where are we now ?;
#X text 146 214 go to the <n>th line from here;
#X text 142 188 go to line number <n>;
#X text 44 38 navigating through the lines of a [msgfile];
#X text 42 62 these messages will not output any data;
#X text 41 96 'where' will output the position of the "cursor" at the
2nd outlet of [msgfile];
#X msg 92 189 goto 8;
#X connect 1 0 0 0;
#X connect 3 0 0 0;
#X connect 5 0 0 0;
#X connect 6 0 0 0;
#X connect 13 0 0 0;
#X restore 275 508 pd navigation;
#N canvas 707 298 458 426 data 0;
#X obj 54 332 outlet;
#X msg 105 143 bang;
#X msg 103 231 next;
#X msg 102 189 prev;
#X msg 103 210 this;
#X text 154 140 output one line as a list and move to the next;
#X text 151 189 output the previous line;
#X text 153 229 output the next line;
#X text 151 209 output the current line;
#X msg 104 264 flush;
#X text 153 263 output all lines;
#X text 39 37 get the contents of the [msgfile] line-by-line;
#X text 37 63 'prev' \, 'this' \, 'next' and 'flush' will not alter
the current "cursor" position.;
#X connect 1 0 0 0;
#X connect 2 0 0 0;
#X connect 3 0 0 0;
#X connect 4 0 0 0;
#X connect 9 0 0 0;
#X restore 275 488 pd data retrieval;
#N canvas 489 234 669 573 editing 0;
#X obj 54 512 outlet;
#X msg 137 101 clear;
#X msg 140 481 set 2 4 6 8;
#X text 246 480 clear and then add one message;
#X msg 136 258 add cis boom bah;
#X msg 136 277 add2 bang;
#X text 190 102 empty the object;
#X msg 137 161 delete 2;
#X text 272 303 insert a message before the current line;
#X text 238 255 add a message at the end of the object;
#X msg 137 359 append after the break of dawn;
#X text 331 356 add a message at the current position;
#X msg 138 437 replace the new day;
#X text 330 437 replace the current line;
#X msg 136 306 insert before sunrise;
#X msg 136 325 insert2 inserted;
#X msg 137 378 append2 appendix;
#X msg 137 141 delete;
#X text 191 142 delete the current line;
#X text 194 161 delete the specified line;
#X msg 137 180 delete 4 7;
#X text 205 181 delete the specified region;
#X msg 137 200 delete 7 4;
#X text 208 200 delete all but the specified region;
#X text 56 39 editing (adding \, modifying \, deleting) the content
if the [msgfile];
#X text 237 275 add to the last line (INCOMPATIBLE with [textfile])
;
#X text 275 325 add to the previous line (INCOMPATIBLE with [textfile])
;
#X text 330 379 add to the current line (INCOMPATIBLE with [textfile])
;
#X connect 1 0 0 0;
#X connect 2 0 0 0;
#X connect 4 0 0 0;
#X connect 5 0 0 0;
#X connect 7 0 0 0;
#X connect 10 0 0 0;
#X connect 12 0 0 0;
#X connect 14 0 0 0;
#X connect 15 0 0 0;
#X connect 16 0 0 0;
#X connect 17 0 0 0;
#X connect 20 0 0 0;
#X connect 22 0 0 0;
#X restore 275 528 pd editing;
#N canvas 0 50 676 304 searching 0;
#X obj 54 272 outlet;
#X msg 70 180 find test 6;
#X msg 70 239 find test * 7 *;
#X text 73 61 searching (and finding) lines within the [msgfile];
#X text 177 241 you can use '*' as a wildchard for a single atom. '*'
is the only wildcard supported;
#X text 174 178 find a matching list \, starting at the current position
;
#X msg 72 208 find the new day;
#X text 76 130 if the search fails \, a 'bang' is emitted at the 2nd
outlet;
#X text 77 99 if the searched list is found \, then the linenumber
and the list is output (via the 2nd and 1st outlet).;
#X connect 1 0 0 0;
#X connect 2 0 0 0;
#X connect 6 0 0 0;
#X restore 275 548 pd searching;
#N canvas 575 306 853 402 file-i/o 0;
#X obj 54 312 outlet;
#X text 265 75 read a file;
#X text 299 96 write one;
#X text 305 164 write a file \, terminating lines only with carriage
return (omitting semicolons.) You can read files this way too \, in
which case carriage returns are mapped to semicolons.;
#X msg 87 76 read msgfile.txt;
#X msg 87 168 write /tmp/msgfile2.txt cr;
#X msg 87 191 read msgfile2.txt cr;
#X msg 87 97 write /tmp/msgfile.txt;
#X text 51 26 reading from and writing the contents of [msgfile] to
files;
#X msg 111 248 write /tmp/msgfile3.txt $$;
#X text 331 238 on writing replace every occurence of $$ with a single
$. This way you can write pd-patches which can handle arguments.;
#X msg 146 291 add #X obj f $\\\$1;
#X msg 92 130 read2 msgfile.txt;
#X text 264 131 read file and append it to the current buffer;
#X connect 4 0 0 0;
#X connect 5 0 0 0;
#X connect 6 0 0 0;
#X connect 7 0 0 0;
#X connect 9 0 0 0;
#X connect 11 0 0 0;
#X connect 12 0 0 0;
#X restore 275 568 pd file-i/o;
#N canvas 56 448 450 397 misc 0;
#X obj 84 282 outlet;
#X msg 84 112 print;
#X text 40 72 miscellaneous functionality of [msgfile];
#X text 126 114 debugging printout of the contents to the console;
#X connect 1 0 0 0;
#X restore 275 588 pd misc;
#X text 206 448 clear;
#X obj 199 336 bng 29 250 50 0 empty empty empty 17 7 0 10 -258113
-4034 -1;
#X msg 215 467 clear;
#X msg 349 591 delete;
#X msg 264 123 location /media/Docs/Vid_gnirut-test/bacteria;
#X obj 199 371 openpanel;
#X msg 199 412 read \$1 cr;
#X msg 424 95 location /media/Docs/Vid_gnirut-test/patch/playlist;
#X obj 202 214 inlet;
#X obj 289 218 inlet;
#X obj 673 249 inlet;
#X obj 238 687 outlet;
#X obj 277 661 print playlistdone;
#X msg 428 309 next;
#X msg 427 267 prev;
#X obj 515 213 loadbang;
#X msg 515 246 read VIDEOS.txt cr;
#X msg 550 390 goto \$1;
#X floatatom 663 370 5 0 0 0 - - -;
#X msg 424 478 this;
#X obj 288 337 bng 15 250 50 0 empty empty empty 17 7 0 10 -262144
-1 -1;
#X obj 500 444 t b a;
#X connect 1 0 0 0;
#X connect 3 0 2 0;
#X connect 4 0 21 0;
#X connect 6 0 7 0;
#X connect 7 0 25 0;
#X connect 7 1 26 0;
#X connect 8 0 7 0;
#X connect 9 0 7 0;
#X connect 10 0 7 0;
#X connect 11 0 7 0;
#X connect 12 0 7 0;
#X connect 13 0 7 0;
#X connect 15 0 19 0;
#X connect 16 0 7 0;
#X connect 17 0 7 0;
#X connect 19 0 20 0;
#X connect 20 0 7 0;
#X connect 22 0 15 0;
#X connect 23 0 34 0;
#X connect 24 0 31 0;
#X connect 27 0 7 0;
#X connect 28 0 7 0;
#X connect 29 0 30 0;
#X connect 30 0 7 0;
#X connect 31 0 35 0;
#X connect 32 0 31 0;
#X connect 33 0 7 0;
#X connect 34 0 6 0;
#X connect 35 0 33 0;
#X connect 35 1 7 0;
#X restore 872 178 pd playlist_player;
#X obj 872 155 bng 15 250 50 0 empty empty Load 17 7 0 10 -258113 -4034
-1;
#X obj 921 155 bng 15 250 50 0 empty empty empty 17 7 0 10 -262144
-1 -1;
#X symbolatom 872 202 32 0 0 0 - - -;
#X obj 977 81 bng 29 250 50 0 empty empty empty 17 7 0 10 -258113 -4034
-1;
#X obj 769 289 pix_film;
#X obj 791 345 unpack 0 0 0;
#X floatatom 791 367 5 0 0 3 length - -;
#X floatatom 838 367 5 0 0 3 width - -;
#X floatatom 880 367 5 0 0 3 height - -;
#X floatatom 832 272 5 0 0 0 - - -;
#X obj 822 315 bng 15 250 50 0 empty empty empty 17 7 0 10 -262144
-1 -1;
#X floatatom 977 137 5 0 0 0 - - -;
#X obj 769 502 pix_add;
#X obj 977 157 f;
#X msg 833 247 open /media/b01/CHACHA/A_LIER/\$1;
#X msg 748 248 auto \$1;
#X obj 748 230 tgl 15 0 empty empty empty 0 -6 0 8 -262144 -1 -1 1
1;
#X obj 869 665 * 800;
#X obj 868 685 / 1280;
#X obj 977 115 rtc/xrandom 17;
#X floatatom 804 437 5 0 0 0 - - -;
#X floatatom 839 438 5 0 0 0 - - -;
#X floatatom 874 438 5 0 0 0 - - -;
#X msg 293 113 seed \$1;
#X obj 1086 101 ggee/shell;
#X msg 1086 81 od -An -N2 -i /dev/random;
#X floatatom 1086 122 5 0 0 0 - - -;
#X obj 1086 61 delay 201;
#X msg 1014 135 seed \$1;
#X msg 180 596 6.4;
#X msg 905 620 6.4;
#X obj 769 459 translateXYZ 6.4 0 0;
#X obj 44 435 translateXYZ -6.4 0 0;
#X text 82 64 double cube moitié figé;
#X obj 271 248 tgl 19 0 empty empty Gem 0 -6 0 8 -258699 -1 -1 0 1
;
#N canvas 3 202 1009 711 playlist_player 0;
#X msg 568 34 seek \$1;
#X floatatom 630 36 5 0 0 0 - - -;
#X msg 529 63 sort \$1;
#X obj 590 64 tgl 15 0 empty empty empty 0 -6 0 8 -262144 -1 -1 0 1
;
#X obj 424 70 loadbang;
#X msg 574 120 scroll 200;
#X msg 275 463 bang;
#X obj 238 625 msgfile;
#N canvas 76 237 646 300 navigation 0;
#X obj 54 272 outlet;
#X msg 91 140 rewind;
#X text 140 139 go to beginning;
#X msg 92 163 end;
#X text 139 163 go the the end;
#X msg 92 214 skip -1;
#X msg 92 238 where;
#X text 145 237 where are we now ?;
#X text 146 214 go to the <n>th line from here;
#X text 142 188 go to line number <n>;
#X text 44 38 navigating through the lines of a [msgfile];
#X text 42 62 these messages will not output any data;
#X text 41 96 'where' will output the position of the "cursor" at the
2nd outlet of [msgfile];
#X msg 92 189 goto 8;
#X connect 1 0 0 0;
#X connect 3 0 0 0;
#X connect 5 0 0 0;
#X connect 6 0 0 0;
#X connect 13 0 0 0;
#X restore 275 508 pd navigation;
#N canvas 707 298 458 426 data 0;
#X obj 54 332 outlet;
#X msg 105 143 bang;
#X msg 103 231 next;
#X msg 102 189 prev;
#X msg 103 210 this;
#X text 154 140 output one line as a list and move to the next;
#X text 151 189 output the previous line;
#X text 153 229 output the next line;
#X text 151 209 output the current line;
#X msg 104 264 flush;
#X text 153 263 output all lines;
#X text 39 37 get the contents of the [msgfile] line-by-line;
#X text 37 63 'prev' \, 'this' \, 'next' and 'flush' will not alter
the current "cursor" position.;
#X connect 1 0 0 0;
#X connect 2 0 0 0;
#X connect 3 0 0 0;
#X connect 4 0 0 0;
#X connect 9 0 0 0;
#X restore 275 488 pd data retrieval;
#N canvas 489 234 669 573 editing 0;
#X obj 54 512 outlet;
#X msg 137 101 clear;
#X msg 140 481 set 2 4 6 8;
#X text 246 480 clear and then add one message;
#X msg 136 258 add cis boom bah;
#X msg 136 277 add2 bang;
#X text 190 102 empty the object;
#X msg 137 161 delete 2;
#X text 272 303 insert a message before the current line;
#X text 238 255 add a message at the end of the object;
#X msg 137 359 append after the break of dawn;
#X text 331 356 add a message at the current position;
#X msg 138 437 replace the new day;
#X text 330 437 replace the current line;
#X msg 136 306 insert before sunrise;
#X msg 136 325 insert2 inserted;
#X msg 137 378 append2 appendix;
#X msg 137 141 delete;
#X text 191 142 delete the current line;
#X text 194 161 delete the specified line;
#X msg 137 180 delete 4 7;
#X text 205 181 delete the specified region;
#X msg 137 200 delete 7 4;
#X text 208 200 delete all but the specified region;
#X text 56 39 editing (adding \, modifying \, deleting) the content
if the [msgfile];
#X text 237 275 add to the last line (INCOMPATIBLE with [textfile])
;
#X text 275 325 add to the previous line (INCOMPATIBLE with [textfile])
;
#X text 330 379 add to the current line (INCOMPATIBLE with [textfile])
;
#X connect 1 0 0 0;
#X connect 2 0 0 0;
#X connect 4 0 0 0;
#X connect 5 0 0 0;
#X connect 7 0 0 0;
#X connect 10 0 0 0;
#X connect 12 0 0 0;
#X connect 14 0 0 0;
#X connect 15 0 0 0;
#X connect 16 0 0 0;
#X connect 17 0 0 0;
#X connect 20 0 0 0;
#X connect 22 0 0 0;
#X restore 275 528 pd editing;
#N canvas 0 50 676 304 searching 0;
#X obj 54 272 outlet;
#X msg 70 180 find test 6;
#X msg 70 239 find test * 7 *;
#X text 73 61 searching (and finding) lines within the [msgfile];
#X text 177 241 you can use '*' as a wildchard for a single atom. '*'
is the only wildcard supported;
#X text 174 178 find a matching list \, starting at the current position
;
#X msg 72 208 find the new day;
#X text 76 130 if the search fails \, a 'bang' is emitted at the 2nd
outlet;
#X text 77 99 if the searched list is found \, then the linenumber
and the list is output (via the 2nd and 1st outlet).;
#X connect 1 0 0 0;
#X connect 2 0 0 0;
#X connect 6 0 0 0;
#X restore 275 548 pd searching;
#N canvas 575 306 853 402 file-i/o 0;
#X obj 54 312 outlet;
#X text 265 75 read a file;
#X text 299 96 write one;
#X text 305 164 write a file \, terminating lines only with carriage
return (omitting semicolons.) You can read files this way too \, in
which case carriage returns are mapped to semicolons.;
#X msg 87 76 read msgfile.txt;
#X msg 87 168 write /tmp/msgfile2.txt cr;
#X msg 87 191 read msgfile2.txt cr;
#X msg 87 97 write /tmp/msgfile.txt;
#X text 51 26 reading from and writing the contents of [msgfile] to
files;
#X msg 111 248 write /tmp/msgfile3.txt $$;
#X text 331 238 on writing replace every occurence of $$ with a single
$. This way you can write pd-patches which can handle arguments.;
#X msg 146 291 add #X obj f $\\\$1;
#X msg 92 130 read2 msgfile.txt;
#X text 264 131 read file and append it to the current buffer;
#X connect 4 0 0 0;
#X connect 5 0 0 0;
#X connect 6 0 0 0;
#X connect 7 0 0 0;
#X connect 9 0 0 0;
#X connect 11 0 0 0;
#X connect 12 0 0 0;
#X restore 275 568 pd file-i/o;
#N canvas 56 448 450 397 misc 0;
#X obj 84 282 outlet;
#X msg 84 112 print;
#X text 40 72 miscellaneous functionality of [msgfile];
#X text 126 114 debugging printout of the contents to the console;
#X connect 1 0 0 0;
#X restore 275 588 pd misc;
#X text 206 448 clear;
#X obj 199 336 bng 29 250 50 0 empty empty empty 17 7 0 10 -258113
-4034 -1;
#X msg 215 467 clear;
#X msg 349 591 delete;
#X msg 264 123 location /media/Docs/Vid_gnirut-test/bacteria;
#X obj 199 371 openpanel;
#X msg 199 412 read \$1 cr;
#X msg 424 95 location /media/Docs/Vid_gnirut-test/patch/playlist;
#X obj 202 214 inlet;
#X obj 289 218 inlet;
#X obj 673 249 inlet;
#X obj 238 687 outlet;
#X obj 277 661 print playlistdone;
#X msg 428 309 next;
#X msg 427 267 prev;
#X obj 515 213 loadbang;
#X msg 515 246 read VIDEOS.txt cr;
#X msg 550 390 goto \$1;
#X floatatom 663 370 5 0 0 0 - - -;
#X msg 424 478 this;
#X obj 288 337 bng 15 250 50 0 empty empty empty 17 7 0 10 -262144
-1 -1;
#X obj 500 444 t b a;
#X connect 1 0 0 0;
#X connect 3 0 2 0;
#X connect 4 0 21 0;
#X connect 6 0 7 0;
#X connect 7 0 25 0;
#X connect 7 1 26 0;
#X connect 8 0 7 0;
#X connect 9 0 7 0;
#X connect 10 0 7 0;
#X connect 11 0 7 0;
#X connect 12 0 7 0;
#X connect 13 0 7 0;
#X connect 15 0 19 0;
#X connect 16 0 7 0;
#X connect 17 0 7 0;
#X connect 19 0 20 0;
#X connect 20 0 7 0;
#X connect 22 0 15 0;
#X connect 23 0 34 0;
#X connect 24 0 31 0;
#X connect 27 0 7 0;
#X connect 28 0 7 0;
#X connect 29 0 30 0;
#X connect 30 0 7 0;
#X connect 31 0 35 0;
#X connect 32 0 31 0;
#X connect 33 0 7 0;
#X connect 34 0 6 0;
#X connect 35 0 33 0;
#X connect 35 1 7 0;
#X restore 374 280 pd playlist_player;
#X obj 374 257 bng 15 250 50 0 empty empty Load 17 7 0 10 -258113 -4034
-1;
#X obj 423 257 bng 15 250 50 0 empty empty empty 17 7 0 10 -262144
-1 -1;
#X symbolatom 374 304 32 0 0 0 - - -;
#X obj 479 183 bng 29 250 50 0 empty empty empty 17 7 0 10 -258113
-4034 -1;
#X obj 271 280 gemhead 51;
#X obj 271 391 pix_film;
#X obj 293 447 unpack 0 0 0;
#X floatatom 293 469 5 0 0 3 length - -;
#X floatatom 340 469 5 0 0 3 width - -;
#X floatatom 382 469 5 0 0 3 height - -;
#X floatatom 334 374 5 0 0 0 - - -;
#X obj 324 417 bng 15 250 50 0 empty empty empty 17 7 0 10 -262144
-1 -1;
#X floatatom 479 239 5 0 0 0 - - -;
#X obj 479 259 f;
#X obj 582 204 ggee/shell;
#X msg 582 184 od -An -N2 -i /dev/random;
#X floatatom 582 225 5 0 0 0 - - -;
#X msg 335 349 open /media/b01/CHACHA/A_LIER/\$1;
#X msg 250 350 auto \$1;
#X obj 250 332 tgl 15 0 empty empty empty 0 -6 0 8 -262144 -1 -1 1
1;
#X obj 479 217 rtc/xrandom 17;
#X msg 520 239 seed \$1;
#X obj 582 164 delay 300;
#X obj 965 280 tgl 19 0 empty empty Gem 0 -6 0 8 -258699 -1 -1 0 1
;
#N canvas 3 202 1009 711 playlist_player 0;
#X msg 568 34 seek \$1;
#X floatatom 630 36 5 0 0 0 - - -;
#X msg 529 63 sort \$1;
#X obj 590 64 tgl 15 0 empty empty empty 0 -6 0 8 -262144 -1 -1 0 1
;
#X obj 424 70 loadbang;
#X msg 574 120 scroll 200;
#X msg 275 463 bang;
#X obj 238 625 msgfile;
#N canvas 76 237 646 300 navigation 0;
#X obj 54 272 outlet;
#X msg 91 140 rewind;
#X text 140 139 go to beginning;
#X msg 92 163 end;
#X text 139 163 go the the end;
#X msg 92 214 skip -1;
#X msg 92 238 where;
#X text 145 237 where are we now ?;
#X text 146 214 go to the <n>th line from here;
#X text 142 188 go to line number <n>;
#X text 44 38 navigating through the lines of a [msgfile];
#X text 42 62 these messages will not output any data;
#X text 41 96 'where' will output the position of the "cursor" at the
2nd outlet of [msgfile];
#X msg 92 189 goto 8;
#X connect 1 0 0 0;
#X connect 3 0 0 0;
#X connect 5 0 0 0;
#X connect 6 0 0 0;
#X connect 13 0 0 0;
#X restore 275 508 pd navigation;
#N canvas 707 298 458 426 data 0;
#X obj 54 332 outlet;
#X msg 105 143 bang;
#X msg 103 231 next;
#X msg 102 189 prev;
#X msg 103 210 this;
#X text 154 140 output one line as a list and move to the next;
#X text 151 189 output the previous line;
#X text 153 229 output the next line;
#X text 151 209 output the current line;
#X msg 104 264 flush;
#X text 153 263 output all lines;
#X text 39 37 get the contents of the [msgfile] line-by-line;
#X text 37 63 'prev' \, 'this' \, 'next' and 'flush' will not alter
the current "cursor" position.;
#X connect 1 0 0 0;
#X connect 2 0 0 0;
#X connect 3 0 0 0;
#X connect 4 0 0 0;
#X connect 9 0 0 0;
#X restore 275 488 pd data retrieval;
#N canvas 489 234 669 573 editing 0;
#X obj 54 512 outlet;
#X msg 137 101 clear;
#X msg 140 481 set 2 4 6 8;
#X text 246 480 clear and then add one message;
#X msg 136 258 add cis boom bah;
#X msg 136 277 add2 bang;
#X text 190 102 empty the object;
#X msg 137 161 delete 2;
#X text 272 303 insert a message before the current line;
#X text 238 255 add a message at the end of the object;
#X msg 137 359 append after the break of dawn;
#X text 331 356 add a message at the current position;
#X msg 138 437 replace the new day;
#X text 330 437 replace the current line;
#X msg 136 306 insert before sunrise;
#X msg 136 325 insert2 inserted;
#X msg 137 378 append2 appendix;
#X msg 137 141 delete;
#X text 191 142 delete the current line;
#X text 194 161 delete the specified line;
#X msg 137 180 delete 4 7;
#X text 205 181 delete the specified region;
#X msg 137 200 delete 7 4;
#X text 208 200 delete all but the specified region;
#X text 56 39 editing (adding \, modifying \, deleting) the content
if the [msgfile];
#X text 237 275 add to the last line (INCOMPATIBLE with [textfile])
;
#X text 275 325 add to the previous line (INCOMPATIBLE with [textfile])
;
#X text 330 379 add to the current line (INCOMPATIBLE with [textfile])
;
#X connect 1 0 0 0;
#X connect 2 0 0 0;
#X connect 4 0 0 0;
#X connect 5 0 0 0;
#X connect 7 0 0 0;
#X connect 10 0 0 0;
#X connect 12 0 0 0;
#X connect 14 0 0 0;
#X connect 15 0 0 0;
#X connect 16 0 0 0;
#X connect 17 0 0 0;
#X connect 20 0 0 0;
#X connect 22 0 0 0;
#X restore 275 528 pd editing;
#N canvas 0 50 676 304 searching 0;
#X obj 54 272 outlet;
#X msg 70 180 find test 6;
#X msg 70 239 find test * 7 *;
#X text 73 61 searching (and finding) lines within the [msgfile];
#X text 177 241 you can use '*' as a wildchard for a single atom. '*'
is the only wildcard supported;
#X text 174 178 find a matching list \, starting at the current position
;
#X msg 72 208 find the new day;
#X text 76 130 if the search fails \, a 'bang' is emitted at the 2nd
outlet;
#X text 77 99 if the searched list is found \, then the linenumber
and the list is output (via the 2nd and 1st outlet).;
#X connect 1 0 0 0;
#X connect 2 0 0 0;
#X connect 6 0 0 0;
#X restore 275 548 pd searching;
#N canvas 575 306 853 402 file-i/o 0;
#X obj 54 312 outlet;
#X text 265 75 read a file;
#X text 299 96 write one;
#X text 305 164 write a file \, terminating lines only with carriage
return (omitting semicolons.) You can read files this way too \, in
which case carriage returns are mapped to semicolons.;
#X msg 87 76 read msgfile.txt;
#X msg 87 168 write /tmp/msgfile2.txt cr;
#X msg 87 191 read msgfile2.txt cr;
#X msg 87 97 write /tmp/msgfile.txt;
#X text 51 26 reading from and writing the contents of [msgfile] to
files;
#X msg 111 248 write /tmp/msgfile3.txt $$;
#X text 331 238 on writing replace every occurence of $$ with a single
$. This way you can write pd-patches which can handle arguments.;
#X msg 146 291 add #X obj f $\\\$1;
#X msg 92 130 read2 msgfile.txt;
#X text 264 131 read file and append it to the current buffer;
#X connect 4 0 0 0;
#X connect 5 0 0 0;
#X connect 6 0 0 0;
#X connect 7 0 0 0;
#X connect 9 0 0 0;
#X connect 11 0 0 0;
#X connect 12 0 0 0;
#X restore 275 568 pd file-i/o;
#N canvas 56 448 450 397 misc 0;
#X obj 84 282 outlet;
#X msg 84 112 print;
#X text 40 72 miscellaneous functionality of [msgfile];
#X text 126 114 debugging printout of the contents to the console;
#X connect 1 0 0 0;
#X restore 275 588 pd misc;
#X text 206 448 clear;
#X obj 199 336 bng 29 250 50 0 empty empty empty 17 7 0 10 -258113
-4034 -1;
#X msg 215 467 clear;
#X msg 349 591 delete;
#X msg 264 123 location /media/Docs/Vid_gnirut-test/bacteria;
#X obj 199 371 openpanel;
#X msg 199 412 read \$1 cr;
#X msg 424 95 location /media/Docs/Vid_gnirut-test/patch/playlist;
#X obj 202 214 inlet;
#X obj 289 218 inlet;
#X obj 673 249 inlet;
#X obj 238 687 outlet;
#X obj 277 661 print playlistdone;
#X msg 428 309 next;
#X msg 427 267 prev;
#X obj 515 213 loadbang;
#X msg 515 246 read VIDEOS.txt cr;
#X msg 550 390 goto \$1;
#X floatatom 663 370 5 0 0 0 - - -;
#X msg 424 478 this;
#X obj 288 337 bng 15 250 50 0 empty empty empty 17 7 0 10 -262144
-1 -1;
#X obj 500 444 t b a;
#X connect 1 0 0 0;
#X connect 3 0 2 0;
#X connect 4 0 21 0;
#X connect 6 0 7 0;
#X connect 7 0 25 0;
#X connect 7 1 26 0;
#X connect 8 0 7 0;
#X connect 9 0 7 0;
#X connect 10 0 7 0;
#X connect 11 0 7 0;
#X connect 12 0 7 0;
#X connect 13 0 7 0;
#X connect 15 0 19 0;
#X connect 16 0 7 0;
#X connect 17 0 7 0;
#X connect 19 0 20 0;
#X connect 20 0 7 0;
#X connect 22 0 15 0;
#X connect 23 0 34 0;
#X connect 24 0 31 0;
#X connect 27 0 7 0;
#X connect 28 0 7 0;
#X connect 29 0 30 0;
#X connect 30 0 7 0;
#X connect 31 0 35 0;
#X connect 32 0 31 0;
#X connect 33 0 7 0;
#X connect 34 0 6 0;
#X connect 35 0 33 0;
#X connect 35 1 7 0;
#X restore 1068 312 pd playlist_player;
#X obj 1068 289 bng 15 250 50 0 empty empty Load 17 7 0 10 -258113
-4034 -1;
#X obj 1117 289 bng 15 250 50 0 empty empty empty 17 7 0 10 -262144
-1 -1;
#X symbolatom 1068 336 32 0 0 0 - - -;
#X obj 1173 215 bng 29 250 50 0 empty empty empty 17 7 0 10 -258113
-4034 -1;
#X obj 965 423 pix_film;
#X obj 987 479 unpack 0 0 0;
#X floatatom 987 501 5 0 0 3 length - -;
#X floatatom 1034 501 5 0 0 3 width - -;
#X floatatom 1076 501 5 0 0 3 height - -;
#X floatatom 1028 406 5 0 0 0 - - -;
#X obj 1018 449 bng 15 250 50 0 empty empty empty 17 7 0 10 -262144
-1 -1;
#X floatatom 1173 271 5 0 0 0 - - -;
#X obj 1173 291 f;
#X obj 1276 236 ggee/shell;
#X msg 1276 216 od -An -N2 -i /dev/random;
#X floatatom 1276 257 5 0 0 0 - - -;
#X msg 1029 381 open /media/b01/CHACHA/A_LIER/\$1;
#X msg 944 382 auto \$1;
#X obj 944 364 tgl 15 0 empty empty empty 0 -6 0 8 -262144 -1 -1 1
1;
#X obj 1173 249 rtc/xrandom 17;
#X msg 1214 271 seed \$1;
#X obj 1276 196 delay 300;
#X obj 582 143 r ib;
#X obj 503 14 s ib;
#X obj 355 17 r ib;
#X obj 1277 174 r ib;
#X obj 1086 38 r ib;
#X obj 439 37 s ib500;
#X obj 253 34 r ib500;
#X obj 479 163 r ib500;
#X obj 977 57 r ib500;
#X obj 1173 193 r ib500;
#X obj 525 41 s ib1;
#X msg 491 38 1;
#X obj 248 308 r ib1;
#X obj 22 183 r ib1;
#X obj 748 205 r ib1;
#X obj 945 340 r ib1;
#X text 83 86 mindmap carré vert;
#X obj 769 178 gemhead 52;
#X obj 965 312 gemhead 52;
#X obj 703 405 line;
#X obj 715 365 r scen1;
#X obj 703 327 r scen2;
#X floatatom 703 424 5 0 0 0 - - -;
#X obj 965 626 line;
#X obj 977 586 r scen1;
#X obj 965 548 r scen2;
#X floatatom 965 645 5 0 0 0 - - -;
#X msg 977 604 6.4 2000;
#X obj 601 17 cnv 15 250 80 empty empty scenarios 20 12 0 14 -125625
-66577 0;
#X obj 742 74 s scen2;
#X obj 791 74 s scen1;
#X obj 742 25 bng 29 250 50 0 empty empty empty 17 7 0 10 -204786 -4034
-1;
#X obj 791 25 bng 29 250 50 0 empty empty empty 17 7 0 10 -204786 -4034
-1;
#X msg 715 383 6.4 2000;
#X msg 703 345 0 5000;
#X msg 965 566 12.8 5000;
#N canvas 704 81 1128 782 BlendingEdges 1;
#X obj 13 318 pix_image;
#X obj 13 295 gemhead 60;
#X floatatom 48 346 5 0 0 0 - - -;
#X floatatom 83 347 5 0 0 0 - - -;
#X floatatom 118 347 5 0 0 0 - - -;
#X floatatom 61 533 5 0 0 0 - - -;
#X floatatom 112 536 5 0 0 0 - - -;
#X obj 13 449 color;
#X obj 96 433 vsl 8 50 0 1 0 0 empty empty empty 0 -8 0 8 -258699 -1
-1 4900 1;
#X obj 104 433 vsl 8 50 0 1 0 0 empty empty empty 0 -8 0 8 -24198 -1
-1 4900 1;
#X obj 112 433 vsl 8 50 0 1 0 0 empty empty empty 0 -8 0 8 -355 -1
-1 4900 1;
#X obj 120 433 vsl 8 50 0 1 0 0 empty empty empty 0 -8 0 8 -195568
-1 -1 4900 1;
#N canvas 0 50 452 302 color 0;
#X obj 44 212 pack f f f f;
#X msg 44 236 \$1 \$2 \$3 \$4;
#X obj 26 145 bng 15 250 50 0 empty empty empty 0 -6 0 8 -262144 -1
-1;
#X obj 41 144 t b f;
#X obj 41 35 vsl 8 50 0 1 0 0 empty empty empty 0 -8 0 8 -258699 -1
-1 4900 1;
#X obj 49 35 vsl 8 50 0 1 0 0 empty empty empty 0 -8 0 8 -24198 -1
-1 4900 1;
#X obj 57 35 vsl 8 50 0 1 0 0 empty empty empty 0 -8 0 8 -355 -1 -1
4900 1;
#X obj 65 35 vsl 8 50 0 1 0 0 empty empty empty 0 -8 0 8 -195568 -1
-1 4900 1;
#X obj 63 167 t b f;
#X obj 86 189 t b f;
#X floatatom 77 86 5 0 0 0 - - -;
#X floatatom 67 101 5 0 0 0 - - -;
#X floatatom 53 115 5 0 0 0 - - -;
#X floatatom 35 129 5 0 0 0 - - -;
#X obj 17 7 inlet;
#X obj 52 7 inlet;
#X obj 87 7 inlet;
#X obj 122 8 inlet;
#X obj 44 261 outlet;
#X connect 0 0 1 0;
#X connect 1 0 18 0;
#X connect 2 0 0 0;
#X connect 3 0 0 0;
#X connect 3 1 0 1;
#X connect 4 0 0 0;
#X connect 4 0 13 0;
#X connect 5 0 3 0;
#X connect 5 0 12 0;
#X connect 6 0 8 0;
#X connect 6 0 11 0;
#X connect 7 0 9 0;
#X connect 7 0 10 0;
#X connect 8 0 0 0;
#X connect 8 1 0 2;
#X connect 9 0 0 0;
#X connect 9 1 0 3;
#X connect 14 0 4 0;
#X connect 15 0 5 0;
#X connect 16 0 6 0;
#X connect 17 0 7 0;
#X restore 87 493 pd color;
#X obj 13 492 pix_texture;
#X obj 137 395 loadbang;
#X msg 137 414 1;
#X msg 95 303 open edgeblending.png;
#X obj 13 428 alpha;
#X obj 13 555 rectangle 0.7 4;
#X text 54 268 Edge Blending;
#X obj 13 270 tgl 19 0 empty empty Gem 0 -6 0 8 -258699 -1 -1 0 1;
#X msg 13 240 0;
#X msg 41 240 1;
#X obj 257 317 pix_image;
#X obj 257 294 gemhead 60;
#X floatatom 292 345 5 0 0 0 - - -;
#X floatatom 327 346 5 0 0 0 - - -;
#X floatatom 362 346 5 0 0 0 - - -;
#X floatatom 305 532 5 0 0 0 - - -;
#X floatatom 356 535 5 0 0 0 - - -;
#X obj 257 448 color;
#X obj 340 432 vsl 8 50 0 1 0 0 empty empty empty 0 -8 0 8 -258699
-1 -1 4900 1;
#X obj 348 432 vsl 8 50 0 1 0 0 empty empty empty 0 -8 0 8 -24198 -1
-1 4900 1;
#X obj 356 432 vsl 8 50 0 1 0 0 empty empty empty 0 -8 0 8 -355 -1
-1 4900 1;
#X obj 364 432 vsl 8 50 0 1 0 0 empty empty empty 0 -8 0 8 -195568
-1 -1 4900 1;
#N canvas 0 50 452 302 color 0;
#X obj 44 212 pack f f f f;
#X msg 44 236 \$1 \$2 \$3 \$4;
#X obj 26 145 bng 15 250 50 0 empty empty empty 0 -6 0 8 -262144 -1
-1;
#X obj 41 144 t b f;
#X obj 41 35 vsl 8 50 0 1 0 0 empty empty empty 0 -8 0 8 -258699 -1
-1 4900 1;
#X obj 49 35 vsl 8 50 0 1 0 0 empty empty empty 0 -8 0 8 -24198 -1
-1 4900 1;
#X obj 57 35 vsl 8 50 0 1 0 0 empty empty empty 0 -8 0 8 -355 -1 -1
4900 1;
#X obj 65 35 vsl 8 50 0 1 0 0 empty empty empty 0 -8 0 8 -195568 -1
-1 4900 1;
#X obj 63 167 t b f;
#X obj 86 189 t b f;
#X floatatom 77 86 5 0 0 0 - - -;
#X floatatom 67 101 5 0 0 0 - - -;
#X floatatom 53 115 5 0 0 0 - - -;
#X floatatom 35 129 5 0 0 0 - - -;
#X obj 17 7 inlet;
#X obj 52 7 inlet;
#X obj 87 7 inlet;
#X obj 122 8 inlet;
#X obj 44 261 outlet;
#X connect 0 0 1 0;
#X connect 1 0 18 0;
#X connect 2 0 0 0;
#X connect 3 0 0 0;
#X connect 3 1 0 1;
#X connect 4 0 0 0;
#X connect 4 0 13 0;
#X connect 5 0 3 0;
#X connect 5 0 12 0;
#X connect 6 0 8 0;
#X connect 6 0 11 0;
#X connect 7 0 9 0;
#X connect 7 0 10 0;
#X connect 8 0 0 0;
#X connect 8 1 0 2;
#X connect 9 0 0 0;
#X connect 9 1 0 3;
#X connect 14 0 4 0;
#X connect 15 0 5 0;
#X connect 16 0 6 0;
#X connect 17 0 7 0;
#X restore 331 492 pd color;
#X obj 257 491 pix_texture;
#X obj 381 394 loadbang;
#X msg 381 413 1;
#X msg 339 302 open edgeblending.png;
#X obj 257 427 alpha;
#X obj 257 367 translateXYZ 0 0 0;
#X text 298 267 Edge Blending;
#X obj 257 269 tgl 19 0 empty empty Gem 0 -6 0 8 -258699 -1 -1 0 1
;
#X msg 257 239 0;
#X msg 285 239 1;
#X obj 257 217 r scen2;
#X obj 305 217 r scen1;
#X obj 496 314 pix_image;
#X obj 496 291 gemhead 60;
#X floatatom 531 342 5 0 0 0 - - -;
#X floatatom 566 343 5 0 0 0 - - -;
#X floatatom 601 343 5 0 0 0 - - -;
#X floatatom 544 529 5 0 0 0 - - -;
#X floatatom 595 532 5 0 0 0 - - -;
#X obj 496 445 color;
#X obj 579 429 vsl 8 50 0 1 0 0 empty empty empty 0 -8 0 8 -258699
-1 -1 4900 1;
#X obj 587 429 vsl 8 50 0 1 0 0 empty empty empty 0 -8 0 8 -24198 -1
-1 4900 1;
#X obj 595 429 vsl 8 50 0 1 0 0 empty empty empty 0 -8 0 8 -355 -1
-1 4900 1;
#X obj 603 429 vsl 8 50 0 1 0 0 empty empty empty 0 -8 0 8 -195568
-1 -1 4900 1;
#N canvas 0 50 452 302 color 0;
#X obj 44 212 pack f f f f;
#X msg 44 236 \$1 \$2 \$3 \$4;
#X obj 26 145 bng 15 250 50 0 empty empty empty 0 -6 0 8 -262144 -1
-1;
#X obj 41 144 t b f;
#X obj 41 35 vsl 8 50 0 1 0 0 empty empty empty 0 -8 0 8 -258699 -1
-1 4900 1;
#X obj 49 35 vsl 8 50 0 1 0 0 empty empty empty 0 -8 0 8 -24198 -1
-1 4900 1;
#X obj 57 35 vsl 8 50 0 1 0 0 empty empty empty 0 -8 0 8 -355 -1 -1
4900 1;
#X obj 65 35 vsl 8 50 0 1 0 0 empty empty empty 0 -8 0 8 -195568 -1
-1 4900 1;
#X obj 63 167 t b f;
#X obj 86 189 t b f;
#X floatatom 77 86 5 0 0 0 - - -;
#X floatatom 67 101 5 0 0 0 - - -;
#X floatatom 53 115 5 0 0 0 - - -;
#X floatatom 35 129 5 0 0 0 - - -;
#X obj 17 7 inlet;
#X obj 52 7 inlet;
#X obj 87 7 inlet;
#X obj 122 8 inlet;
#X obj 44 261 outlet;
#X connect 0 0 1 0;
#X connect 1 0 18 0;
#X connect 2 0 0 0;
#X connect 3 0 0 0;
#X connect 3 1 0 1;
#X connect 4 0 0 0;
#X connect 4 0 13 0;
#X connect 5 0 3 0;
#X connect 5 0 12 0;
#X connect 6 0 8 0;
#X connect 6 0 11 0;
#X connect 7 0 9 0;
#X connect 7 0 10 0;
#X connect 8 0 0 0;
#X connect 8 1 0 2;
#X connect 9 0 0 0;
#X connect 9 1 0 3;
#X connect 14 0 4 0;
#X connect 15 0 5 0;
#X connect 16 0 6 0;
#X connect 17 0 7 0;
#X restore 570 489 pd color;
#X obj 496 488 pix_texture;
#X obj 620 391 loadbang;
#X msg 620 410 1;
#X msg 578 299 open edgeblending.png;
#X obj 496 424 alpha;
#X obj 496 551 rectangle 0.7 4;
#X text 537 264 Edge Blending;
#X obj 496 266 tgl 19 0 empty empty Gem 0 -6 0 8 -258699 -1 -1 0 1
;
#X msg 496 236 0;
#X msg 524 236 1;
#X obj 843 113 pix_image;
#X obj 843 90 gemhead 60;
#X floatatom 878 174 5 0 0 0 - - -;
#X floatatom 913 175 5 0 0 0 - - -;
#X floatatom 948 175 5 0 0 0 - - -;
#X floatatom 891 328 5 0 0 0 - - -;
#X floatatom 942 331 5 0 0 0 - - -;
#X obj 843 244 color;
#X obj 926 228 vsl 8 50 0 1 0 0 empty empty empty 0 -8 0 8 -258699
-1 -1 4900 1;
#X obj 934 228 vsl 8 50 0 1 0 0 empty empty empty 0 -8 0 8 -24198 -1
-1 4900 1;
#X obj 942 228 vsl 8 50 0 1 0 0 empty empty empty 0 -8 0 8 -355 -1
-1 4900 1;
#X obj 950 228 vsl 8 50 0 1 0 0 empty empty empty 0 -8 0 8 -195568
-1 -1 4900 1;
#N canvas 0 50 452 302 color 0;
#X obj 44 212 pack f f f f;
#X msg 44 236 \$1 \$2 \$3 \$4;
#X obj 26 145 bng 15 250 50 0 empty empty empty 0 -6 0 8 -262144 -1
-1;
#X obj 41 144 t b f;
#X obj 41 35 vsl 8 50 0 1 0 0 empty empty empty 0 -8 0 8 -258699 -1
-1 4900 1;
#X obj 49 35 vsl 8 50 0 1 0 0 empty empty empty 0 -8 0 8 -24198 -1
-1 4900 1;
#X obj 57 35 vsl 8 50 0 1 0 0 empty empty empty 0 -8 0 8 -355 -1 -1
4900 1;
#X obj 65 35 vsl 8 50 0 1 0 0 empty empty empty 0 -8 0 8 -195568 -1
-1 4900 1;
#X obj 63 167 t b f;
#X obj 86 189 t b f;
#X floatatom 77 86 5 0 0 0 - - -;
#X floatatom 67 101 5 0 0 0 - - -;
#X floatatom 53 115 5 0 0 0 - - -;
#X floatatom 35 129 5 0 0 0 - - -;
#X obj 17 7 inlet;
#X obj 52 7 inlet;
#X obj 87 7 inlet;
#X obj 122 8 inlet;
#X obj 44 261 outlet;
#X connect 0 0 1 0;
#X connect 1 0 18 0;
#X connect 2 0 0 0;
#X connect 3 0 0 0;
#X connect 3 1 0 1;
#X connect 4 0 0 0;
#X connect 4 0 13 0;
#X connect 5 0 3 0;
#X connect 5 0 12 0;
#X connect 6 0 8 0;
#X connect 6 0 11 0;
#X connect 7 0 9 0;
#X connect 7 0 10 0;
#X connect 8 0 0 0;
#X connect 8 1 0 2;
#X connect 9 0 0 0;
#X connect 9 1 0 3;
#X connect 14 0 4 0;
#X connect 15 0 5 0;
#X connect 16 0 6 0;
#X connect 17 0 7 0;
#X restore 917 288 pd color;
#X obj 843 287 pix_texture;
#X obj 967 190 loadbang;
#X msg 967 209 1;
#X obj 843 223 alpha;
#X text 884 63 Edge Blending;
#X obj 843 65 tgl 19 0 empty empty Gem 0 -6 0 8 -258699 -1 -1 1 1;
#X msg 843 35 0;
#X msg 871 35 1;
#X obj 844 487 pix_image;
#X obj 844 464 gemhead 60;
#X floatatom 879 515 5 0 0 0 - - -;
#X floatatom 914 516 5 0 0 0 - - -;
#X floatatom 949 516 5 0 0 0 - - -;
#X floatatom 892 702 5 0 0 0 - - -;
#X floatatom 943 705 5 0 0 0 - - -;
#X obj 844 618 color;
#X obj 927 602 vsl 8 50 0 1 0 0 empty empty empty 0 -8 0 8 -258699
-1 -1 4900 1;
#X obj 935 602 vsl 8 50 0 1 0 0 empty empty empty 0 -8 0 8 -24198 -1
-1 4900 1;
#X obj 943 602 vsl 8 50 0 1 0 0 empty empty empty 0 -8 0 8 -355 -1
-1 4900 1;
#X obj 951 602 vsl 8 50 0 1 0 0 empty empty empty 0 -8 0 8 -195568
-1 -1 4900 1;
#N canvas 0 50 452 302 color 0;
#X obj 44 212 pack f f f f;
#X msg 44 236 \$1 \$2 \$3 \$4;
#X obj 26 145 bng 15 250 50 0 empty empty empty 0 -6 0 8 -262144 -1
-1;
#X obj 41 144 t b f;
#X obj 41 35 vsl 8 50 0 1 0 0 empty empty empty 0 -8 0 8 -258699 -1
-1 4900 1;
#X obj 49 35 vsl 8 50 0 1 0 0 empty empty empty 0 -8 0 8 -24198 -1
-1 4900 1;
#X obj 57 35 vsl 8 50 0 1 0 0 empty empty empty 0 -8 0 8 -355 -1 -1
4900 1;
#X obj 65 35 vsl 8 50 0 1 0 0 empty empty empty 0 -8 0 8 -195568 -1
-1 4900 1;
#X obj 63 167 t b f;
#X obj 86 189 t b f;
#X floatatom 77 86 5 0 0 0 - - -;
#X floatatom 67 101 5 0 0 0 - - -;
#X floatatom 53 115 5 0 0 0 - - -;
#X floatatom 35 129 5 0 0 0 - - -;
#X obj 17 7 inlet;
#X obj 52 7 inlet;
#X obj 87 7 inlet;
#X obj 122 8 inlet;
#X obj 44 261 outlet;
#X connect 0 0 1 0;
#X connect 1 0 18 0;
#X connect 2 0 0 0;
#X connect 3 0 0 0;
#X connect 3 1 0 1;
#X connect 4 0 0 0;
#X connect 4 0 13 0;
#X connect 5 0 3 0;
#X connect 5 0 12 0;
#X connect 6 0 8 0;
#X connect 6 0 11 0;
#X connect 7 0 9 0;
#X connect 7 0 10 0;
#X connect 8 0 0 0;
#X connect 8 1 0 2;
#X connect 9 0 0 0;
#X connect 9 1 0 3;
#X connect 14 0 4 0;
#X connect 15 0 5 0;
#X connect 16 0 6 0;
#X connect 17 0 7 0;
#X restore 918 662 pd color;
#X obj 844 661 pix_texture;
#X obj 968 564 loadbang;
#X msg 968 583 1;
#X obj 844 597 alpha;
#X text 885 437 Edge Blending;
#X obj 844 439 tgl 19 0 empty empty Gem 0 -6 0 8 -258699 -1 -1 1 1
;
#X msg 844 409 0;
#X msg 872 409 1;
#X obj 13 368 translateXYZ -12.8 0 0;
#X obj 496 364 translateXYZ 12.8 0 0;
#X obj 843 196 translateXYZ 0 4 0;
#X obj 844 537 translateXYZ 0 -4 0;
#X msg 925 98 open edgeblendingh.png;
#X msg 926 472 open edgeblendingh.png;
#X obj 843 350 rectangle 12.8 0.5;
#X obj 844 724 rectangle 12.8 0.5;
#X obj 257 554 rectangle 0.4 4;
#X connect 0 0 113 0;
#X connect 1 0 0 0;
#X connect 2 0 113 1;
#X connect 3 0 113 2;
#X connect 4 0 113 3;
#X connect 5 0 18 1;
#X connect 6 0 18 2;
#X connect 7 0 13 0;
#X connect 8 0 12 0;
#X connect 9 0 12 1;
#X connect 10 0 12 2;
#X connect 11 0 12 3;
#X connect 12 0 7 1;
#X connect 13 0 18 0;
#X connect 14 0 15 0;
#X connect 14 0 16 0;
#X connect 15 0 8 0;
#X connect 15 0 9 0;
#X connect 15 0 10 0;
#X connect 15 0 11 0;
#X connect 16 0 0 0;
#X connect 17 0 7 0;
#X connect 20 0 1 0;
#X connect 21 0 20 0;
#X connect 22 0 20 0;
#X connect 23 0 41 0;
#X connect 24 0 23 0;
#X connect 25 0 41 1;
#X connect 26 0 41 2;
#X connect 27 0 41 3;
#X connect 28 0 121 1;
#X connect 29 0 121 2;
#X connect 30 0 36 0;
#X connect 31 0 35 0;
#X connect 32 0 35 1;
#X connect 33 0 35 2;
#X connect 34 0 35 3;
#X connect 35 0 30 1;
#X connect 36 0 121 0;
#X connect 37 0 38 0;
#X connect 37 0 39 0;
#X connect 38 0 31 0;
#X connect 38 0 32 0;
#X connect 38 0 33 0;
#X connect 38 0 34 0;
#X connect 39 0 23 0;
#X connect 40 0 30 0;
#X connect 41 0 40 0;
#X connect 43 0 24 0;
#X connect 44 0 43 0;
#X connect 45 0 43 0;
#X connect 46 0 44 0;
#X connect 47 0 45 0;
#X connect 48 0 114 0;
#X connect 49 0 48 0;
#X connect 50 0 114 1;
#X connect 51 0 114 2;
#X connect 52 0 114 3;
#X connect 53 0 66 1;
#X connect 54 0 66 2;
#X connect 55 0 61 0;
#X connect 56 0 60 0;
#X connect 57 0 60 1;
#X connect 58 0 60 2;
#X connect 59 0 60 3;
#X connect 60 0 55 1;
#X connect 61 0 66 0;
#X connect 62 0 63 0;
#X connect 62 0 64 0;
#X connect 63 0 56 0;
#X connect 63 0 57 0;
#X connect 63 0 58 0;
#X connect 63 0 59 0;
#X connect 64 0 48 0;
#X connect 65 0 55 0;
#X connect 68 0 49 0;
#X connect 69 0 68 0;
#X connect 70 0 68 0;
#X connect 71 0 115 0;
#X connect 72 0 71 0;
#X connect 73 0 115 1;
#X connect 74 0 115 2;
#X connect 75 0 115 3;
#X connect 76 0 119 1;
#X connect 77 0 119 2;
#X connect 78 0 84 0;
#X connect 79 0 83 0;
#X connect 80 0 83 1;
#X connect 81 0 83 2;
#X connect 82 0 83 3;
#X connect 83 0 78 1;
#X connect 84 0 119 0;
#X connect 85 0 86 0;
#X connect 85 0 117 0;
#X connect 86 0 79 0;
#X connect 86 0 80 0;
#X connect 86 0 81 0;
#X connect 86 0 82 0;
#X connect 87 0 78 0;
#X connect 89 0 72 0;
#X connect 90 0 89 0;
#X connect 91 0 89 0;
#X connect 92 0 116 0;
#X connect 93 0 92 0;
#X connect 94 0 116 1;
#X connect 95 0 116 2;
#X connect 96 0 116 3;
#X connect 97 0 120 1;
#X connect 98 0 120 2;
#X connect 99 0 105 0;
#X connect 100 0 104 0;
#X connect 101 0 104 1;
#X connect 102 0 104 2;
#X connect 103 0 104 3;
#X connect 104 0 99 1;
#X connect 105 0 120 0;
#X connect 106 0 107 0;
#X connect 106 0 118 0;
#X connect 107 0 100 0;
#X connect 107 0 101 0;
#X connect 107 0 102 0;
#X connect 107 0 103 0;
#X connect 108 0 99 0;
#X connect 110 0 93 0;
#X connect 111 0 110 0;
#X connect 112 0 110 0;
#X connect 113 0 17 0;
#X connect 114 0 65 0;
#X connect 115 0 87 0;
#X connect 116 0 108 0;
#X connect 117 0 71 0;
#X connect 118 0 92 0;
#X restore 480 553 pd BlendingEdges;
#X connect 2 0 6 0;
#X connect 3 0 16 1;
#X connect 4 0 16 2;
#X connect 5 0 3 0;
#X connect 5 0 52 0;
#X connect 6 0 12 0;
#X connect 7 0 11 0;
#X connect 8 0 11 1;
#X connect 9 0 11 2;
#X connect 10 0 11 3;
#X connect 11 0 6 1;
#X connect 12 0 16 0;
#X connect 13 0 104 0;
#X connect 14 0 15 0;
#X connect 15 0 7 0;
#X connect 15 0 8 0;
#X connect 15 0 9 0;
#X connect 15 0 10 0;
#X connect 17 0 26 0;
#X connect 20 0 19 0;
#X connect 21 0 24 0;
#X connect 22 0 21 0;
#X connect 23 0 21 1;
#X connect 24 0 49 0;
#X connect 25 0 54 0;
#X connect 26 0 27 0;
#X connect 27 0 36 0;
#X connect 27 1 28 0;
#X connect 27 2 33 0;
#X connect 28 0 29 0;
#X connect 28 1 30 0;
#X connect 28 2 31 0;
#X connect 30 0 53 1;
#X connect 31 0 52 1;
#X connect 32 0 27 1;
#X connect 33 0 25 0;
#X connect 34 0 42 0;
#X connect 35 0 40 0;
#X connect 36 0 107 0;
#X connect 39 0 46 0;
#X connect 40 0 19 1;
#X connect 41 0 163 0;
#X connect 42 0 21 2;
#X connect 43 0 46 0;
#X connect 44 0 47 0;
#X connect 45 0 44 0;
#X connect 46 0 41 0;
#X connect 46 1 169 0;
#X connect 46 2 159 0;
#X connect 47 0 98 0;
#X connect 48 0 45 0;
#X connect 49 0 27 0;
#X connect 50 0 27 0;
#X connect 51 0 50 0;
#X connect 52 0 53 0;
#X connect 53 0 4 0;
#X connect 54 0 34 0;
#X connect 55 0 107 1;
#X connect 56 0 107 2;
#X connect 57 0 107 3;
#X connect 58 0 62 0;
#X connect 59 0 72 1;
#X connect 60 0 72 2;
#X connect 61 0 59 0;
#X connect 61 0 92 0;
#X connect 62 0 68 0;
#X connect 63 0 67 0;
#X connect 64 0 67 1;
#X connect 65 0 67 2;
#X connect 66 0 67 3;
#X connect 67 0 62 1;
#X connect 68 0 72 0;
#X connect 69 0 105 0;
#X connect 70 0 71 0;
#X connect 71 0 63 0;
#X connect 71 0 64 0;
#X connect 71 0 65 0;
#X connect 71 0 66 0;
#X connect 73 0 175 0;
#X connect 74 0 77 0;
#X connect 75 0 74 0;
#X connect 76 0 74 1;
#X connect 77 0 89 0;
#X connect 78 0 94 0;
#X connect 79 0 106 0;
#X connect 79 1 80 0;
#X connect 79 2 85 0;
#X connect 80 0 81 0;
#X connect 80 1 82 0;
#X connect 80 2 83 0;
#X connect 82 0 93 1;
#X connect 83 0 92 1;
#X connect 84 0 79 1;
#X connect 85 0 78 0;
#X connect 86 0 88 0;
#X connect 87 0 58 0;
#X connect 88 0 74 2;
#X connect 89 0 79 0;
#X connect 90 0 79 0;
#X connect 91 0 90 0;
#X connect 92 0 93 0;
#X connect 93 0 60 0;
#X connect 94 0 86 0;
#X connect 95 0 106 1;
#X connect 96 0 106 2;
#X connect 97 0 106 3;
#X connect 98 0 54 0;
#X connect 99 0 101 0;
#X connect 100 0 99 0;
#X connect 101 0 103 0;
#X connect 102 0 100 0;
#X connect 103 0 94 0;
#X connect 104 0 5 0;
#X connect 105 0 61 0;
#X connect 106 0 87 0;
#X connect 107 0 2 0;
#X connect 109 0 115 0;
#X connect 110 0 113 0;
#X connect 111 0 110 0;
#X connect 112 0 110 1;
#X connect 113 0 128 0;
#X connect 114 0 131 0;
#X connect 115 0 116 0;
#X connect 116 0 36 1;
#X connect 116 1 117 0;
#X connect 116 2 122 0;
#X connect 117 0 118 0;
#X connect 117 1 119 0;
#X connect 117 2 120 0;
#X connect 121 0 116 1;
#X connect 122 0 114 0;
#X connect 123 0 124 0;
#X connect 124 0 110 2;
#X connect 125 0 127 0;
#X connect 126 0 125 0;
#X connect 127 0 132 0;
#X connect 128 0 116 0;
#X connect 129 0 116 0;
#X connect 130 0 129 0;
#X connect 131 0 123 0;
#X connect 132 0 131 0;
#X connect 133 0 126 0;
#X connect 134 0 176 0;
#X connect 135 0 138 0;
#X connect 136 0 135 0;
#X connect 137 0 135 1;
#X connect 138 0 152 0;
#X connect 139 0 155 0;
#X connect 140 0 87 1;
#X connect 140 1 141 0;
#X connect 140 2 146 0;
#X connect 141 0 142 0;
#X connect 141 1 143 0;
#X connect 141 2 144 0;
#X connect 145 0 140 1;
#X connect 146 0 139 0;
#X connect 147 0 148 0;
#X connect 148 0 135 2;
#X connect 149 0 151 0;
#X connect 150 0 149 0;
#X connect 151 0 156 0;
#X connect 152 0 140 0;
#X connect 153 0 140 0;
#X connect 154 0 153 0;
#X connect 155 0 147 0;
#X connect 156 0 155 0;
#X connect 157 0 150 0;
#X connect 158 0 133 0;
#X connect 160 0 48 0;
#X connect 161 0 157 0;
#X connect 162 0 102 0;
#X connect 164 0 25 0;
#X connect 165 0 114 0;
#X connect 166 0 78 0;
#X connect 167 0 139 0;
#X connect 169 0 168 0;
#X connect 170 0 130 0;
#X connect 171 0 51 0;
#X connect 172 0 91 0;
#X connect 173 0 154 0;
#X connect 175 0 79 0;
#X connect 176 0 140 0;
#X connect 177 0 180 0;
#X connect 178 0 191 0;
#X connect 179 0 192 0;
#X connect 180 0 95 0;
#X connect 181 0 184 0;
#X connect 182 0 185 0;
#X connect 183 0 193 0;
#X connect 184 0 61 0;
#X connect 185 0 181 0;
#X connect 189 0 187 0;
#X connect 190 0 188 0;
#X connect 191 0 177 0;
#X connect 192 0 177 0;
#X connect 193 0 181 0;
